<?xml version="1.0" encoding="UTF-8"?>
<svg id="Capa_1" data-name="Capa 1" xmlns="http://www.w3.org/2000/svg" viewBox="0 0 300 228.7">
  <defs>
    <style>
      .cls-1 {
        fill: #fff;
      }
    </style>
  </defs>
  <path class="cls-1" d="M158.92,0c.56,0,5.44,8.15,6.16,9.33,4.39,7.09,11.88,18.47,12.23,26.74,1.13,26.2-36.77,24.42-37.26,2.24-.16-7.16,5.89-17.16,9.42-23.39,2.88-5.09,6.04-10.16,9.43-14.92Z"/>
  <path class="cls-1" d="M146.29,72.2c.71.61-4.27,5.46-4.87,5.98-11.84,10.35-34.4,14.62-49.27,9.83-2-.64-4.68-1.64-6.05-3.25-.39-2.04,9.52-9.37,11.49-10.54,8.13-4.83,17.34-6.34,26.76-5.57,7.09.58,14.57,4.22,21.93,3.54Z"/>
  <path class="cls-1" d="M225.14,67.76c-11.81-3.51-22.38-1.52-32.75,4.69-18.88,11.33-29.74,30.13-51.43,38.05-18.69,6.83-42.4,1.65-54.92-14.17.29-.58,1.21-.01,1.67.1,13.6,3.48,20.92,6.66,35.63,3.09,27.63-6.7,40.41-35.03,67.16-40.93,12.61-2.78,25.58-.45,34.63,9.16Z"/>
  <path class="cls-1" d="M235.77,92.57c-11.61-3.85-22.17-1.02-32.12,5.31-14.93,9.49-24.39,24-40.67,31.98-19.24,9.44-43.28,6.06-57-10.93l12.83,3.56c29.74,5.59,41.56-10.86,61.82-26.8,16.12-12.68,39.01-19.83,55.14-3.12Z"/>
  <path class="cls-1" d="M294.21,188.52v28.37c0,2.95.91,4.08,3.18,4.08,0,0,1.7,0,2.61-1.59,0,2.84-4.08,8.17-12.6,8.17-6.13,0-10.44-2.84-11.69-8.62-3.74,5.67-9.87,8.62-16.68,8.62-10.44,0-18.49-6.81-18.49-17.02,0-20.88,33.25-18.61,34.04-28.03-2.27-7.49-8.28-9.99-12.26-9.99-1.59,0-2.72.34-3.29.79,1.93,1.59,3.29,4.08,3.29,6.92,0,4.77-3.97,8.74-8.96,8.74s-8.96-3.97-8.96-9.19c0-7.83,8.51-13.39,22.81-13.39,12.71,0,27,4.42,27,22.13ZM275.38,190.9c-5.67,4.09-16,6.01-16,15.77,0,5.67,3.52,9.19,7.15,9.19,4.09,0,8.17-4.42,8.85-11.12v-13.84Z"/>
  <path class="cls-1" d="M209.37,225.18v2.38h-23.49v-37.78c0-4.31-1.13-13.28-7.15-13.28-5.67,0-7.72,7.38-8.17,12.48v28.14c0,2.72,1.59,5.56,3.63,7.26l1.13.79v2.38h-28.25v-2.38l1.02-.79c2.27-1.7,3.74-4.54,3.74-7.26v-34.38c0-2.72-1.48-5.67-3.74-7.26l-1.02-.79v-2.38l18.84-3.52h4.65v7.94c3.29-5.33,8.74-9.19,16.34-9.19,8.85,0,14.07,5.11,16.34,12.03,3.18-7.38,9.64-12.03,17.81-12.03,11.23,0,17.7,8.51,17.7,21.1v29.39c0,2.95,1.02,4.08,3.18,4.08,0,0,1.82,0,2.72-1.59,0,2.84-4.08,8.17-12.71,8.17-7.49,0-11.92-4.09-11.92-13.05v-25.87c0-8.06-2.84-13.28-7.26-13.28s-8.17,5.9-8.06,14.75v25.87c0,2.72,1.36,5.56,3.63,7.26l1.02.79Z"/>
  <path class="cls-1" d="M147.07,225.17v2.38h-28.25v-2.38l1.02-.79c2.27-1.7,3.75-4.54,3.75-7.26v-57.87c0-2.72-1.48-5.67-3.75-7.26l-1.02-.91v-2.27l18.84-3.52h4.65v71.82c0,2.72,1.59,5.56,3.63,7.26l1.13.79Z"/>
  <path class="cls-1" d="M117.44,188.52v28.37c0,2.95.91,4.08,3.18,4.08,0,0,1.7,0,2.61-1.59,0,2.84-4.08,8.17-12.6,8.17-6.13,0-10.44-2.84-11.69-8.62-3.74,5.67-9.87,8.62-16.68,8.62-10.44,0-18.49-6.81-18.49-17.02,0-20.88,33.25-18.61,34.04-28.03-2.27-7.49-8.28-9.99-12.26-9.99-1.59,0-2.72.34-3.29.79,1.93,1.59,3.29,4.08,3.29,6.92,0,4.77-3.97,8.74-8.96,8.74s-8.96-3.97-8.96-9.19c0-7.83,8.51-13.39,22.81-13.39,12.71,0,27,4.42,27,22.13ZM98.6,190.9c-5.67,4.09-16,6.01-16,15.77,0,5.67,3.52,9.19,7.15,9.19,4.09,0,8.17-4.42,8.85-11.12v-13.84Z"/>
  <path class="cls-1" d="M66.74,164.66c0,7.15-5.66,12.81-12.71,12.81s-12.6-5.66-12.6-12.6c0-4.16,1.82-7.8,4.7-10.14-1.17-.11-2.46-.21-3.63-.21-16.02,0-24.77,13.35-24.77,31.5s8.33,30.54,24.88,30.54c11.42,0,17.81-5.67,23.58-14.61l3.01-.87c-5.77,16.55-16.66,26.48-33.53,26.48-21.25,0-35.66-15.7-35.66-39.19s15.8-40.47,40.26-40.47c16.76,0,26.48,7.37,26.48,16.76Z"/>
</svg>